<mxfile host="Electron" modified="2023-09-29T03:57:28.230Z" agent="Mozilla/5.0 (Windows NT 10.0; Win64; x64) AppleWebKit/537.36 (KHTML, like Gecko) draw.io/21.6.1 Chrome/112.0.5615.204 Electron/24.6.1 Safari/537.36" etag="Emczy4GHfOmUj8S_19aP" version="21.6.1" type="device">
  <diagram name="第 1 页" id="AfD4Imqu0ayZHoYfAQ7O">
    <mxGraphModel dx="780" dy="496" grid="1" gridSize="10" guides="1" tooltips="1" connect="1" arrows="1" fold="1" page="1" pageScale="1" pageWidth="827" pageHeight="1169" math="0" shadow="0">
      <root>
        <mxCell id="0" />
        <mxCell id="1" parent="0" />
        <mxCell id="H8lD3lvKZia0e6jZ_RL6-56" value="" style="rounded=0;whiteSpace=wrap;html=1;dashed=1;fillColor=#d5e8d4;strokeColor=#82b366;" parent="1" vertex="1">
          <mxGeometry x="400" y="510" width="320" height="290" as="geometry" />
        </mxCell>
        <mxCell id="H8lD3lvKZia0e6jZ_RL6-55" value="" style="rounded=0;whiteSpace=wrap;html=1;dashed=1;fillColor=#dae8fc;strokeColor=#6c8ebf;" parent="1" vertex="1">
          <mxGeometry x="80" y="510" width="320" height="290" as="geometry" />
        </mxCell>
        <mxCell id="H8lD3lvKZia0e6jZ_RL6-1" value="德阳总线&lt;br style=&quot;font-size: 16px;&quot;&gt;100" style="rounded=0;whiteSpace=wrap;html=1;fontStyle=1;fontSize=16;fillColor=#6a00ff;strokeColor=#3700CC;fontColor=#ffffff;" parent="1" vertex="1">
          <mxGeometry x="80" y="30" width="120" height="60" as="geometry" />
        </mxCell>
        <mxCell id="H8lD3lvKZia0e6jZ_RL6-2" value="广汉总线&lt;br style=&quot;font-size: 16px;&quot;&gt;100" style="rounded=0;whiteSpace=wrap;html=1;fontStyle=1;fontSize=16;fillColor=#6a00ff;fontColor=#ffffff;strokeColor=#3700CC;" parent="1" vertex="1">
          <mxGeometry x="470" y="30" width="120" height="60" as="geometry" />
        </mxCell>
        <mxCell id="H8lD3lvKZia0e6jZ_RL6-3" value="中心总线&lt;br style=&quot;font-size: 16px;&quot;&gt;999" style="rounded=0;whiteSpace=wrap;html=1;fontStyle=1;fontSize=16;" parent="1" vertex="1">
          <mxGeometry x="470" y="230" width="120" height="60" as="geometry" />
        </mxCell>
        <mxCell id="H8lD3lvKZia0e6jZ_RL6-4" value="中心总线&lt;br style=&quot;font-size: 16px;&quot;&gt;999" style="rounded=0;whiteSpace=wrap;html=1;fontStyle=1;fontSize=16;" parent="1" vertex="1">
          <mxGeometry x="80" y="230" width="120" height="60" as="geometry" />
        </mxCell>
        <mxCell id="H8lD3lvKZia0e6jZ_RL6-5" value="" style="endArrow=none;html=1;rounded=0;" parent="1" edge="1">
          <mxGeometry width="50" height="50" relative="1" as="geometry">
            <mxPoint x="380" y="450" as="sourcePoint" />
            <mxPoint x="380" y="20" as="targetPoint" />
          </mxGeometry>
        </mxCell>
        <mxCell id="H8lD3lvKZia0e6jZ_RL6-7" value="" style="endArrow=none;dashed=1;html=1;rounded=0;entryX=0.5;entryY=1;entryDx=0;entryDy=0;" parent="1" target="H8lD3lvKZia0e6jZ_RL6-1" edge="1">
          <mxGeometry width="50" height="50" relative="1" as="geometry">
            <mxPoint x="140" y="220" as="sourcePoint" />
            <mxPoint x="130" y="130" as="targetPoint" />
          </mxGeometry>
        </mxCell>
        <mxCell id="H8lD3lvKZia0e6jZ_RL6-8" value="" style="endArrow=none;dashed=1;html=1;rounded=0;entryX=0.5;entryY=1;entryDx=0;entryDy=0;" parent="1" target="H8lD3lvKZia0e6jZ_RL6-2" edge="1">
          <mxGeometry width="50" height="50" relative="1" as="geometry">
            <mxPoint x="530" y="220" as="sourcePoint" />
            <mxPoint x="440" y="120" as="targetPoint" />
          </mxGeometry>
        </mxCell>
        <mxCell id="H8lD3lvKZia0e6jZ_RL6-9" value="" style="endArrow=none;dashed=1;html=1;rounded=0;entryX=0.5;entryY=1;entryDx=0;entryDy=0;" parent="1" target="H8lD3lvKZia0e6jZ_RL6-4" edge="1">
          <mxGeometry width="50" height="50" relative="1" as="geometry">
            <mxPoint x="139.5" y="420" as="sourcePoint" />
            <mxPoint x="180" y="330" as="targetPoint" />
          </mxGeometry>
        </mxCell>
        <mxCell id="H8lD3lvKZia0e6jZ_RL6-10" value="" style="endArrow=none;dashed=1;html=1;rounded=0;entryX=0.5;entryY=1;entryDx=0;entryDy=0;" parent="1" target="H8lD3lvKZia0e6jZ_RL6-3" edge="1">
          <mxGeometry width="50" height="50" relative="1" as="geometry">
            <mxPoint x="530" y="430" as="sourcePoint" />
            <mxPoint x="530" y="320" as="targetPoint" />
          </mxGeometry>
        </mxCell>
        <mxCell id="H8lD3lvKZia0e6jZ_RL6-11" value="德阳总线大类&lt;br&gt;10101" style="rounded=0;whiteSpace=wrap;html=1;" parent="1" vertex="1">
          <mxGeometry x="140" y="90" width="90" height="40" as="geometry" />
        </mxCell>
        <mxCell id="H8lD3lvKZia0e6jZ_RL6-13" value="德阳总线中类&lt;br&gt;1010101" style="rounded=0;whiteSpace=wrap;html=1;" parent="1" vertex="1">
          <mxGeometry x="170" y="130" width="90" height="40" as="geometry" />
        </mxCell>
        <mxCell id="H8lD3lvKZia0e6jZ_RL6-14" value="德阳总线事件01&lt;br&gt;101010101" style="rounded=0;whiteSpace=wrap;html=1;" parent="1" vertex="1">
          <mxGeometry x="200" y="170" width="90" height="40" as="geometry" />
        </mxCell>
        <mxCell id="H8lD3lvKZia0e6jZ_RL6-15" value="中心总线一级&lt;br&gt;10101" style="rounded=0;whiteSpace=wrap;html=1;" parent="1" vertex="1">
          <mxGeometry x="140" y="290" width="90" height="40" as="geometry" />
        </mxCell>
        <mxCell id="H8lD3lvKZia0e6jZ_RL6-16" value="中心总线二级&lt;br&gt;1010101" style="rounded=0;whiteSpace=wrap;html=1;" parent="1" vertex="1">
          <mxGeometry x="170" y="330" width="90" height="40" as="geometry" />
        </mxCell>
        <mxCell id="H8lD3lvKZia0e6jZ_RL6-17" value="中心总线事件1&lt;br&gt;101010101" style="rounded=0;whiteSpace=wrap;html=1;" parent="1" vertex="1">
          <mxGeometry x="200" y="370" width="90" height="40" as="geometry" />
        </mxCell>
        <mxCell id="H8lD3lvKZia0e6jZ_RL6-19" value="广汉总线大类&lt;br&gt;10101" style="rounded=0;whiteSpace=wrap;html=1;" parent="1" vertex="1">
          <mxGeometry x="530" y="90" width="90" height="40" as="geometry" />
        </mxCell>
        <mxCell id="H8lD3lvKZia0e6jZ_RL6-20" value="广汉总线中类&lt;br&gt;1010101" style="rounded=0;whiteSpace=wrap;html=1;" parent="1" vertex="1">
          <mxGeometry x="560" y="130" width="90" height="40" as="geometry" />
        </mxCell>
        <mxCell id="H8lD3lvKZia0e6jZ_RL6-21" value="广汉总线事件01&lt;br&gt;101010101" style="rounded=0;whiteSpace=wrap;html=1;" parent="1" vertex="1">
          <mxGeometry x="590" y="170" width="90" height="40" as="geometry" />
        </mxCell>
        <mxCell id="H8lD3lvKZia0e6jZ_RL6-22" value="中心总线一级&lt;br&gt;10101" style="rounded=0;whiteSpace=wrap;html=1;" parent="1" vertex="1">
          <mxGeometry x="530" y="290" width="90" height="40" as="geometry" />
        </mxCell>
        <mxCell id="H8lD3lvKZia0e6jZ_RL6-23" value="中心总线二级&lt;br&gt;1010101" style="rounded=0;whiteSpace=wrap;html=1;" parent="1" vertex="1">
          <mxGeometry x="560" y="330" width="90" height="40" as="geometry" />
        </mxCell>
        <mxCell id="H8lD3lvKZia0e6jZ_RL6-24" value="中心总线事件1&lt;br&gt;101010101" style="rounded=0;whiteSpace=wrap;html=1;" parent="1" vertex="1">
          <mxGeometry x="590" y="370" width="90" height="40" as="geometry" />
        </mxCell>
        <mxCell id="H8lD3lvKZia0e6jZ_RL6-32" style="edgeStyle=orthogonalEdgeStyle;rounded=0;orthogonalLoop=1;jettySize=auto;html=1;exitX=1;exitY=0.5;exitDx=0;exitDy=0;entryX=0;entryY=0.5;entryDx=0;entryDy=0;" parent="1" edge="1">
          <mxGeometry relative="1" as="geometry">
            <mxPoint x="230" y="610" as="sourcePoint" />
            <mxPoint x="340" y="610" as="targetPoint" />
          </mxGeometry>
        </mxCell>
        <mxCell id="H8lD3lvKZia0e6jZ_RL6-33" value="dispatch" style="edgeLabel;html=1;align=center;verticalAlign=middle;resizable=0;points=[];" parent="H8lD3lvKZia0e6jZ_RL6-32" vertex="1" connectable="0">
          <mxGeometry x="-0.1455" y="-1" relative="1" as="geometry">
            <mxPoint as="offset" />
          </mxGeometry>
        </mxCell>
        <mxCell id="H8lD3lvKZia0e6jZ_RL6-48" style="edgeStyle=orthogonalEdgeStyle;rounded=0;orthogonalLoop=1;jettySize=auto;html=1;exitX=0.25;exitY=1;exitDx=0;exitDy=0;entryX=0.25;entryY=0;entryDx=0;entryDy=0;" parent="1" source="H8lD3lvKZia0e6jZ_RL6-27" target="H8lD3lvKZia0e6jZ_RL6-28" edge="1">
          <mxGeometry relative="1" as="geometry" />
        </mxCell>
        <mxCell id="H8lD3lvKZia0e6jZ_RL6-49" value="reply" style="edgeLabel;html=1;align=center;verticalAlign=middle;resizable=0;points=[];" parent="H8lD3lvKZia0e6jZ_RL6-48" vertex="1" connectable="0">
          <mxGeometry x="-0.2381" y="1" relative="1" as="geometry">
            <mxPoint as="offset" />
          </mxGeometry>
        </mxCell>
        <mxCell id="H8lD3lvKZia0e6jZ_RL6-27" value="广汉总线&lt;br&gt;100" style="rounded=0;whiteSpace=wrap;html=1;" parent="1" vertex="1">
          <mxGeometry x="110" y="560" width="120" height="60" as="geometry" />
        </mxCell>
        <mxCell id="H8lD3lvKZia0e6jZ_RL6-50" style="edgeStyle=orthogonalEdgeStyle;rounded=0;orthogonalLoop=1;jettySize=auto;html=1;exitX=0.75;exitY=0;exitDx=0;exitDy=0;entryX=0.75;entryY=1;entryDx=0;entryDy=0;" parent="1" source="H8lD3lvKZia0e6jZ_RL6-28" target="H8lD3lvKZia0e6jZ_RL6-27" edge="1">
          <mxGeometry relative="1" as="geometry" />
        </mxCell>
        <mxCell id="H8lD3lvKZia0e6jZ_RL6-51" value="eventUpload" style="edgeLabel;html=1;align=center;verticalAlign=middle;resizable=0;points=[];" parent="H8lD3lvKZia0e6jZ_RL6-50" vertex="1" connectable="0">
          <mxGeometry x="-0.1048" y="3" relative="1" as="geometry">
            <mxPoint as="offset" />
          </mxGeometry>
        </mxCell>
        <mxCell id="H8lD3lvKZia0e6jZ_RL6-28" value="广汉12345" style="rounded=0;whiteSpace=wrap;html=1;" parent="1" vertex="1">
          <mxGeometry x="110" y="690" width="120" height="60" as="geometry" />
        </mxCell>
        <mxCell id="H8lD3lvKZia0e6jZ_RL6-34" style="edgeStyle=orthogonalEdgeStyle;rounded=0;orthogonalLoop=1;jettySize=auto;html=1;exitX=1;exitY=0.5;exitDx=0;exitDy=0;entryX=0;entryY=0.5;entryDx=0;entryDy=0;" parent="1" edge="1">
          <mxGeometry relative="1" as="geometry">
            <mxPoint x="575" y="610" as="targetPoint" />
            <mxPoint x="460" y="610" as="sourcePoint" />
          </mxGeometry>
        </mxCell>
        <mxCell id="H8lD3lvKZia0e6jZ_RL6-36" value="eventUpload" style="edgeLabel;html=1;align=center;verticalAlign=middle;resizable=0;points=[];" parent="H8lD3lvKZia0e6jZ_RL6-34" vertex="1" connectable="0">
          <mxGeometry x="-0.1014" y="-1" relative="1" as="geometry">
            <mxPoint as="offset" />
          </mxGeometry>
        </mxCell>
        <mxCell id="H8lD3lvKZia0e6jZ_RL6-46" style="edgeStyle=orthogonalEdgeStyle;rounded=0;orthogonalLoop=1;jettySize=auto;html=1;exitX=0;exitY=0.25;exitDx=0;exitDy=0;entryX=1;entryY=0.25;entryDx=0;entryDy=0;" parent="1" source="H8lD3lvKZia0e6jZ_RL6-29" target="H8lD3lvKZia0e6jZ_RL6-27" edge="1">
          <mxGeometry relative="1" as="geometry" />
        </mxCell>
        <mxCell id="H8lD3lvKZia0e6jZ_RL6-47" value="synchronization" style="edgeLabel;html=1;align=center;verticalAlign=middle;resizable=0;points=[];" parent="H8lD3lvKZia0e6jZ_RL6-46" vertex="1" connectable="0">
          <mxGeometry x="0.0848" relative="1" as="geometry">
            <mxPoint as="offset" />
          </mxGeometry>
        </mxCell>
        <mxCell id="H8lD3lvKZia0e6jZ_RL6-29" value="中心总线&lt;br&gt;999" style="rounded=0;whiteSpace=wrap;html=1;" parent="1" vertex="1">
          <mxGeometry x="340" y="560" width="120" height="60" as="geometry" />
        </mxCell>
        <mxCell id="H8lD3lvKZia0e6jZ_RL6-39" style="edgeStyle=orthogonalEdgeStyle;rounded=0;orthogonalLoop=1;jettySize=auto;html=1;exitX=0.75;exitY=1;exitDx=0;exitDy=0;entryX=0.75;entryY=0;entryDx=0;entryDy=0;" parent="1" source="H8lD3lvKZia0e6jZ_RL6-35" target="H8lD3lvKZia0e6jZ_RL6-38" edge="1">
          <mxGeometry relative="1" as="geometry" />
        </mxCell>
        <mxCell id="H8lD3lvKZia0e6jZ_RL6-40" value="转发" style="edgeLabel;html=1;align=center;verticalAlign=middle;resizable=0;points=[];" parent="H8lD3lvKZia0e6jZ_RL6-39" vertex="1" connectable="0">
          <mxGeometry x="-0.2381" y="-2" relative="1" as="geometry">
            <mxPoint as="offset" />
          </mxGeometry>
        </mxCell>
        <mxCell id="H8lD3lvKZia0e6jZ_RL6-43" style="edgeStyle=orthogonalEdgeStyle;rounded=0;orthogonalLoop=1;jettySize=auto;html=1;exitX=0;exitY=0.25;exitDx=0;exitDy=0;entryX=1;entryY=0.25;entryDx=0;entryDy=0;" parent="1" source="H8lD3lvKZia0e6jZ_RL6-35" target="H8lD3lvKZia0e6jZ_RL6-29" edge="1">
          <mxGeometry relative="1" as="geometry" />
        </mxCell>
        <mxCell id="H8lD3lvKZia0e6jZ_RL6-44" value="reply" style="edgeLabel;html=1;align=center;verticalAlign=middle;resizable=0;points=[];" parent="H8lD3lvKZia0e6jZ_RL6-43" vertex="1" connectable="0">
          <mxGeometry x="0.0377" y="1" relative="1" as="geometry">
            <mxPoint as="offset" />
          </mxGeometry>
        </mxCell>
        <mxCell id="H8lD3lvKZia0e6jZ_RL6-35" value="德阳总线&lt;br&gt;100" style="rounded=0;whiteSpace=wrap;html=1;" parent="1" vertex="1">
          <mxGeometry x="575" y="560" width="120" height="60" as="geometry" />
        </mxCell>
        <mxCell id="H8lD3lvKZia0e6jZ_RL6-41" style="edgeStyle=orthogonalEdgeStyle;rounded=0;orthogonalLoop=1;jettySize=auto;html=1;exitX=0.25;exitY=0;exitDx=0;exitDy=0;entryX=0.25;entryY=1;entryDx=0;entryDy=0;" parent="1" source="H8lD3lvKZia0e6jZ_RL6-38" target="H8lD3lvKZia0e6jZ_RL6-35" edge="1">
          <mxGeometry relative="1" as="geometry" />
        </mxCell>
        <mxCell id="H8lD3lvKZia0e6jZ_RL6-42" value="synchronization" style="edgeLabel;html=1;align=center;verticalAlign=middle;resizable=0;points=[];" parent="H8lD3lvKZia0e6jZ_RL6-41" vertex="1" connectable="0">
          <mxGeometry x="0.0952" y="-1" relative="1" as="geometry">
            <mxPoint as="offset" />
          </mxGeometry>
        </mxCell>
        <mxCell id="H8lD3lvKZia0e6jZ_RL6-38" value="德阳12345" style="rounded=0;whiteSpace=wrap;html=1;" parent="1" vertex="1">
          <mxGeometry x="575" y="690" width="120" height="60" as="geometry" />
        </mxCell>
        <mxCell id="H8lD3lvKZia0e6jZ_RL6-57" value="问&lt;br&gt;题&lt;br&gt;点" style="html=1;shadow=0;dashed=0;align=center;verticalAlign=middle;shape=mxgraph.arrows2.arrow;dy=0.6;dx=40;direction=south;notch=0;fillColor=#e51400;fontColor=#ffffff;strokeColor=#B20000;" parent="1" vertex="1">
          <mxGeometry x="250" y="460" width="70" height="100" as="geometry" />
        </mxCell>
      </root>
    </mxGraphModel>
  </diagram>
</mxfile>
